<svg xmlns="http://www.w3.org/2000/svg" width="1600" height="900" viewBox="0 0 1600 900" preserveAspectRatio="xMidYMid meet" role="img" aria-labelledby="pilot-swimlane-neutral-light-title pilot-swimlane-neutral-light-desc" lang="vi">
  <title id="pilot-swimlane-neutral-light-title">Luồng chứng từ thu tiền</title>
  <desc id="pilot-swimlane-neutral-light-desc">Swimlane tiếng Việt gồm sáu đơn vị: Khách hàng, Phòng thư, Thu tiền, Phải thu, Sổ cái và Ngân hàng. Thủ quỹ quản lý Phòng thư và Thu tiền; Kế toán trưởng quản lý Phải thu và Sổ cái. Các handoff (1) đến (5) nối séc, giấy báo chuyển tiền, bảng kê chuyển tiền, tệp phải thu và tệp sổ cái.</desc>
  <style>
    .canvas { fill: #F5F7FA; }
    .surface { fill: #FFFFFF; stroke: #AEBAC9; stroke-width: 2; }
    .surface-alt { fill: #E9EEF4; stroke: #AEBAC9; stroke-width: 1.5; }
    .title { font: 700 32px ui-sans-serif, system-ui, -apple-system, BlinkMacSystemFont, Segoe UI, sans-serif; fill: #172033; letter-spacing: -0.4px; }
    .eyebrow { font: 700 14px ui-sans-serif, system-ui, -apple-system, BlinkMacSystemFont, Segoe UI, sans-serif; fill: #246BCE; letter-spacing: 1.8px; }
    .heading { font: 700 22px ui-sans-serif, system-ui, -apple-system, BlinkMacSystemFont, Segoe UI, sans-serif; fill: #172033; }
    .label { font: 600 20px ui-sans-serif, system-ui, -apple-system, BlinkMacSystemFont, Segoe UI, sans-serif; fill: #172033; }
    .node-label { font: 650 20px ui-sans-serif, system-ui, -apple-system, BlinkMacSystemFont, Segoe UI, sans-serif; fill: #172033; }
    .annotation { font: 500 20px ui-sans-serif, system-ui, -apple-system, BlinkMacSystemFont, Segoe UI, sans-serif; fill: #526175; }
    .numeric { font: 700 20px ui-sans-serif, system-ui, -apple-system, BlinkMacSystemFont, Segoe UI, sans-serif; fill: #172033; font-variant-numeric: tabular-nums; }
    .route { fill: none; stroke: #405A78; stroke-width: 2.4; stroke-linejoin: round; stroke-linecap: round; marker-end: url(#arrow); }
    .route-denied { fill: none; stroke: #B23A30; stroke-width: 2.4; stroke-dasharray: 8 6; marker-end: url(#arrow-danger); }
    .route-badge { fill: #FFFFFF; stroke: #AEBAC9; stroke-width: 1; }
    .lane-divider { stroke: #AEBAC9; stroke-width: 1; }
    .grid { stroke: #D5DCE6; stroke-width: 1; }
    </style>
  
    <defs>
      <marker id="arrow" markerWidth="10" markerHeight="10" refX="8" refY="5" orient="auto" markerUnits="strokeWidth"><path d="M 0 0 L 9 5 L 0 10 z" fill="#405A78"/></marker>
      <marker id="arrow-danger" markerWidth="10" markerHeight="10" refX="8" refY="5" orient="auto" markerUnits="strokeWidth"><path d="M 0 0 L 9 5 L 0 10 z" fill="#B23A30"/></marker>
      <pattern id="series-hatch" width="8" height="8" patternUnits="userSpaceOnUse" patternTransform="rotate(45)"><rect width="8" height="8" fill="#A34F13"/><line x1="0" y1="0" x2="0" y2="8" stroke="#F5F7FA" stroke-width="2" opacity="0.55"/></pattern>
      <pattern id="denied-hatch" width="8" height="8" patternUnits="userSpaceOnUse" patternTransform="rotate(45)"><rect width="8" height="8" fill="#FFFFFF"/><line x1="0" y1="0" x2="0" y2="8" stroke="#B23A30" stroke-width="2" opacity="0.35"/></pattern>
    </defs>
    
  <rect class="canvas" x="0" y="0" width="1600" height="900"/>
  <text x="36.0" y="42.0" class="eyebrow" text-anchor="start" >PILOT • GROUPED SWIMLANE • REF-001</text><text x="36.0" y="82.0" class="title" text-anchor="start" >Luồng chứng từ thu tiền</text><text x="36.0" y="112.0" class="annotation" text-anchor="start" >Theo dõi độc lập séc, chứng từ, bảng kê và tệp lưu qua sáu đơn vị.</text><rect x="36.0" y="150.0" width="254.7" height="660.0" fill="#FFFFFF" opacity="0.72"/><line class="lane-divider" x1="36.0" y1="150.0" x2="36.0" y2="810.0"/><text x="163.3" y="190.0" class="heading" text-anchor="middle" >Khách hàng</text><rect x="290.7" y="150.0" width="254.7" height="660.0" fill="#E9EEF4" opacity="0.72"/><line class="lane-divider" x1="290.7" y1="150.0" x2="290.7" y2="810.0"/><text x="418.0" y="190.0" class="heading" text-anchor="middle" >Phòng thư</text><rect x="545.3" y="150.0" width="254.7" height="660.0" fill="#FFFFFF" opacity="0.72"/><line class="lane-divider" x1="545.3" y1="150.0" x2="545.3" y2="810.0"/><text x="672.7" y="190.0" class="heading" text-anchor="middle" >Thu tiền</text><rect x="800.0" y="150.0" width="254.7" height="660.0" fill="#E9EEF4" opacity="0.72"/><line class="lane-divider" x1="800.0" y1="150.0" x2="800.0" y2="810.0"/><text x="927.3" y="190.0" class="heading" text-anchor="middle" >Phải thu</text><rect x="1054.7" y="150.0" width="254.7" height="660.0" fill="#FFFFFF" opacity="0.72"/><line class="lane-divider" x1="1054.7" y1="150.0" x2="1054.7" y2="810.0"/><text x="1182.0" y="190.0" class="heading" text-anchor="middle" >Sổ cái</text><rect x="1309.3" y="150.0" width="254.7" height="660.0" fill="#E9EEF4" opacity="0.72"/><line class="lane-divider" x1="1309.3" y1="150.0" x2="1309.3" y2="810.0"/><text x="1436.7" y="190.0" class="heading" text-anchor="middle" >Ngân hàng</text><line class="lane-divider" x1="1564.0" y1="150" x2="1564.0" y2="810"/><rect x="294.7" y="116" width="501.3" height="38" rx="12" fill="#246BCE"/><text x="545.3" y="141.0" class="label" text-anchor="middle" fill="#FFFFFF" style="fill:#FFFFFF">THỦ QUỸ</text><rect x="804.0" y="116" width="501.3" height="38" rx="12" fill="#246BCE"/><text x="1054.7" y="141.0" class="label" text-anchor="middle" fill="#FFFFFF" style="fill:#FFFFFF">KẾ TOÁN TRƯỞNG</text><path id="visual-handoff-check-mail" class="route" d="M 266.7 303.0 L 290.7 303.0 L 290.7 303.0 L 314.7 303.0"/><rect class="route-badge" x="266.1" y="284.0" width="49.2" height="34" rx="10"/><text x="290.7" y="310.0" class="annotation" text-anchor="middle" >(1)</text><path id="visual-handoff-check-cash" class="route" d="M 521.3 303.0 L 545.3 303.0 L 545.3 303.0 L 569.3 303.0"/><rect class="route-badge" x="520.7" y="284.0" width="49.2" height="34" rx="10"/><text x="545.3" y="310.0" class="annotation" text-anchor="middle" >(2)</text><path id="visual-handoff-check-bank" class="route" d="M 776.0 303.0 L 1054.7 303.0 L 1054.7 303.0 L 1333.3 303.0"/><rect class="route-badge" x="1030.1" y="284.0" width="49.2" height="34" rx="10"/><text x="1054.7" y="310.0" class="annotation" text-anchor="middle" >(3)</text><path id="visual-handoff-notice-mail" class="route" d="M 266.7 449.0 L 290.7 449.0 L 290.7 449.0 L 314.7 449.0"/><rect class="route-badge" x="266.1" y="430.0" width="49.2" height="34" rx="10"/><text x="290.7" y="456.0" class="annotation" text-anchor="middle" >(1)</text><path id="visual-handoff-notice-ar" class="route" d="M 521.3 449.0 L 672.7 449.0 L 672.7 449.0 L 824.0 449.0"/><rect class="route-badge" x="648.1" y="430.0" width="49.2" height="34" rx="10"/><text x="672.7" y="456.0" class="annotation" text-anchor="middle" >(4)</text><path id="visual-handoff-notice-file" class="route" d="M 927.3 490.0 L 927.3 595.0 L 927.3 595.0 L 927.3 700.0"/><rect class="route-badge" x="902.7" y="576.0" width="49.2" height="34" rx="10"/><text x="927.3" y="602.0" class="annotation" text-anchor="middle" >(4)</text><path id="visual-handoff-listing-cash" class="route" d="M 521.3 595.0 L 545.3 595.0 L 545.3 595.0 L 569.3 595.0"/><rect class="route-badge" x="520.7" y="576.0" width="49.2" height="34" rx="10"/><text x="545.3" y="602.0" class="annotation" text-anchor="middle" >(2)</text><path id="visual-handoff-listing-ledger" class="route" d="M 776.0 595.0 L 927.3 595.0 L 927.3 595.0 L 1078.7 595.0"/><rect class="route-badge" x="902.7" y="576.0" width="49.2" height="34" rx="10"/><text x="927.3" y="602.0" class="annotation" text-anchor="middle" >(5)</text><path id="visual-handoff-listing-file" class="route" d="M 1182.0 636.0 L 1182.0 668.0 L 1182.0 668.0 L 1182.0 700.0"/><rect class="route-badge" x="1157.4" y="649.0" width="49.2" height="34" rx="10"/><text x="1182.0" y="675.0" class="annotation" text-anchor="middle" >(5)</text><path id="visual-handoff-file-ledger" class="route" d="M 1030.7 741.0 L 1054.7 741.0 L 1054.7 741.0 L 1078.7 741.0"/><rect class="route-badge" x="1030.1" y="722.0" width="49.2" height="34" rx="10"/><text x="1054.7" y="748.0" class="annotation" text-anchor="middle" >(5)</text><g id="visual-check-customer"><path d="M 70.0 262.0 H 256.7 Q 266.7 262.0 266.7 272.0 V 294.0 Q 257.7 303.0 266.7 312.0 V 334.0 Q 266.7 344.0 256.7 344.0 H 70.0 Q 60.0 344.0 60.0 334.0 V 312.0 Q 69.0 303.0 60.0 294.0 V 272.0 Q 60.0 262.0 70.0 262.0 Z" fill="#FFF3D1" stroke="#9A5B00" stroke-width="2"/><line x1="78.0" y1="331.0" x2="248.7" y2="331.0" stroke="#9A5B00" stroke-width="2"/><rect x="60.0" y="262.0" width="7" height="82.0" rx="3.5" fill="#246BCE"/><text class="node-label" text-anchor="middle"><tspan x="163.3" y="308.0">Séc</tspan></text></g><g id="visual-check-mail"><path d="M 324.7 262.0 H 511.3 Q 521.3 262.0 521.3 272.0 V 294.0 Q 512.3 303.0 521.3 312.0 V 334.0 Q 521.3 344.0 511.3 344.0 H 324.7 Q 314.7 344.0 314.7 334.0 V 312.0 Q 323.7 303.0 314.7 294.0 V 272.0 Q 314.7 262.0 324.7 262.0 Z" fill="#FFF3D1" stroke="#9A5B00" stroke-width="2"/><line x1="332.7" y1="331.0" x2="503.3" y2="331.0" stroke="#9A5B00" stroke-width="2"/><rect x="314.7" y="262.0" width="7" height="82.0" rx="3.5" fill="#246BCE"/><text class="node-label" text-anchor="middle"><tspan x="418.0" y="308.0">Séc</tspan></text></g><g id="visual-check-cash"><path d="M 579.3 262.0 H 766.0 Q 776.0 262.0 776.0 272.0 V 294.0 Q 767.0 303.0 776.0 312.0 V 334.0 Q 776.0 344.0 766.0 344.0 H 579.3 Q 569.3 344.0 569.3 334.0 V 312.0 Q 578.3 303.0 569.3 294.0 V 272.0 Q 569.3 262.0 579.3 262.0 Z" fill="#FFF3D1" stroke="#9A5B00" stroke-width="2"/><line x1="587.3" y1="331.0" x2="758.0" y2="331.0" stroke="#9A5B00" stroke-width="2"/><rect x="569.3" y="262.0" width="7" height="82.0" rx="3.5" fill="#246BCE"/><text class="node-label" text-anchor="middle"><tspan x="672.7" y="308.0">Séc</tspan></text></g><g id="visual-check-bank"><path d="M 1343.3 262.0 H 1530.0 Q 1540.0 262.0 1540.0 272.0 V 294.0 Q 1531.0 303.0 1540.0 312.0 V 334.0 Q 1540.0 344.0 1530.0 344.0 H 1343.3 Q 1333.3 344.0 1333.3 334.0 V 312.0 Q 1342.3 303.0 1333.3 294.0 V 272.0 Q 1333.3 262.0 1343.3 262.0 Z" fill="#FFF3D1" stroke="#9A5B00" stroke-width="2"/><line x1="1351.3" y1="331.0" x2="1522.0" y2="331.0" stroke="#9A5B00" stroke-width="2"/><rect x="1333.3" y="262.0" width="7" height="82.0" rx="3.5" fill="#246BCE"/><text class="node-label" text-anchor="middle"><tspan x="1436.7" y="308.0">Séc</tspan></text></g><g id="visual-notice-customer"><polygon points="60.0,408 248.66666666666663,408 266.66666666666663,426 266.66666666666663,490 60.0,490" fill="#EAF1FF" stroke="#4A67A1" stroke-width="2"/><polyline points="248.66666666666663,408 248.66666666666663,426 266.66666666666663,426" fill="none" stroke="#4A67A1" stroke-width="2"/><rect x="60.0" y="408.0" width="7" height="82.0" rx="3.5" fill="#246BCE"/><text class="node-label" text-anchor="middle"><tspan x="163.3" y="454.0">Giấy báo chuyển tiền</tspan></text></g><g id="visual-notice-mail"><polygon points="314.66666666666663,408 503.33333333333326,408 521.3333333333333,426 521.3333333333333,490 314.66666666666663,490" fill="#EAF1FF" stroke="#4A67A1" stroke-width="2"/><polyline points="503.33333333333326,408 503.33333333333326,426 521.3333333333333,426" fill="none" stroke="#4A67A1" stroke-width="2"/><rect x="314.7" y="408.0" width="7" height="82.0" rx="3.5" fill="#246BCE"/><text class="node-label" text-anchor="middle"><tspan x="418.0" y="454.0">Giấy báo chuyển tiền</tspan></text></g><g id="visual-notice-ar"><polygon points="824.0,408 1012.6666666666667,408 1030.6666666666667,426 1030.6666666666667,490 824.0,490" fill="#EAF1FF" stroke="#4A67A1" stroke-width="2"/><polyline points="1012.6666666666667,408 1012.6666666666667,426 1030.6666666666667,426" fill="none" stroke="#4A67A1" stroke-width="2"/><rect x="824.0" y="408.0" width="7" height="82.0" rx="3.5" fill="#246BCE"/><text class="node-label" text-anchor="middle"><tspan x="927.3" y="454.0">Giấy báo chuyển tiền</tspan></text></g><g id="visual-listing-mail"><rect x="314.7" y="554.0" width="206.7" height="82.0" rx="8" fill="#F8FAFC" stroke="#69778A" stroke-width="2"/><line aria-hidden="true" x1="328.7" y1="569.0" x2="366.7" y2="569.0" stroke="#69778A" stroke-width="2" opacity="0.7"/><line aria-hidden="true" x1="328.7" y1="578.0" x2="366.7" y2="578.0" stroke="#69778A" stroke-width="2" opacity="0.7"/><line aria-hidden="true" x1="328.7" y1="587.0" x2="366.7" y2="587.0" stroke="#69778A" stroke-width="2" opacity="0.7"/><rect x="314.7" y="554.0" width="7" height="82.0" rx="3.5" fill="#246BCE"/><text class="node-label" text-anchor="middle"><tspan x="418.0" y="600.0">Bảng kê chuyển tiền</tspan></text></g><g id="visual-listing-cash"><rect x="569.3" y="554.0" width="206.7" height="82.0" rx="8" fill="#F8FAFC" stroke="#69778A" stroke-width="2"/><line aria-hidden="true" x1="583.3" y1="569.0" x2="621.3" y2="569.0" stroke="#69778A" stroke-width="2" opacity="0.7"/><line aria-hidden="true" x1="583.3" y1="578.0" x2="621.3" y2="578.0" stroke="#69778A" stroke-width="2" opacity="0.7"/><line aria-hidden="true" x1="583.3" y1="587.0" x2="621.3" y2="587.0" stroke="#69778A" stroke-width="2" opacity="0.7"/><rect x="569.3" y="554.0" width="7" height="82.0" rx="3.5" fill="#246BCE"/><text class="node-label" text-anchor="middle"><tspan x="672.7" y="600.0">Bảng kê chuyển tiền</tspan></text></g><g id="visual-listing-ledger"><rect x="1078.7" y="554.0" width="206.7" height="82.0" rx="8" fill="#F8FAFC" stroke="#69778A" stroke-width="2"/><line aria-hidden="true" x1="1092.7" y1="569.0" x2="1130.7" y2="569.0" stroke="#69778A" stroke-width="2" opacity="0.7"/><line aria-hidden="true" x1="1092.7" y1="578.0" x2="1130.7" y2="578.0" stroke="#69778A" stroke-width="2" opacity="0.7"/><line aria-hidden="true" x1="1092.7" y1="587.0" x2="1130.7" y2="587.0" stroke="#69778A" stroke-width="2" opacity="0.7"/><rect x="1078.7" y="554.0" width="7" height="82.0" rx="3.5" fill="#246BCE"/><text class="node-label" text-anchor="middle"><tspan x="1182.0" y="600.0">Bảng kê chuyển tiền</tspan></text></g><g id="visual-file-ar"><path d="M 824.0 716.0 H 912.0 L 928.0 700.0 H 1030.7 V 782.0 H 824.0 Z" fill="#E2F3EB" stroke="#267A55" stroke-width="2"/><rect x="824.0" y="700.0" width="7" height="82.0" rx="3.5" fill="#246BCE"/><text class="node-label" text-anchor="middle"><tspan x="927.3" y="746.0">Tệp phải thu</tspan></text></g><g id="visual-file-ledger"><path d="M 1078.7 716.0 H 1166.7 L 1182.7 700.0 H 1285.3 V 782.0 H 1078.7 Z" fill="#E2F3EB" stroke="#267A55" stroke-width="2"/><rect x="1078.7" y="700.0" width="7" height="82.0" rx="3.5" fill="#246BCE"/><text class="node-label" text-anchor="middle"><tspan x="1182.0" y="746.0">Tệp sổ cái</tspan></text></g><g id="visual-legend-money"><path d="M 46.0 825.0 H 56.0 Q 66.0 825.0 66.0 835.0 V 828.0 Q 57.0 837.0 66.0 846.0 V 839.0 Q 66.0 849.0 56.0 849.0 H 46.0 Q 36.0 849.0 36.0 839.0 V 846.0 Q 45.0 837.0 36.0 828.0 V 835.0 Q 36.0 825.0 46.0 825.0 Z" fill="#FFF3D1" stroke="#9A5B00" stroke-width="2"/><line x1="54.0" y1="836.0" x2="48.0" y2="836.0" stroke="#9A5B00" stroke-width="2"/><rect x="36.0" y="825.0" width="7" height="24.0" rx="3.5" fill="#246BCE"/><text aria-hidden="true" opacity="0" class="node-label" text-anchor="middle"><tspan x="51.0" y="842.0"></tspan></text></g><text x="78.0" y="842.0" class="label" text-anchor="start" >Séc</text><g id="visual-legend-document"><polygon points="286,825 298,825 316,843 316,849 286,849" fill="#EAF1FF" stroke="#4A67A1" stroke-width="2"/><polyline points="298,825 298,843 316,843" fill="none" stroke="#4A67A1" stroke-width="2"/><rect x="286.0" y="825.0" width="7" height="24.0" rx="3.5" fill="#246BCE"/><text aria-hidden="true" opacity="0" class="node-label" text-anchor="middle"><tspan x="301.0" y="842.0"></tspan></text></g><text x="328.0" y="842.0" class="label" text-anchor="start" >Chứng từ đối chiếu</text><g id="visual-legend-listing"><rect x="536.0" y="825.0" width="30.0" height="24.0" rx="8" fill="#F8FAFC" stroke="#69778A" stroke-width="2"/><line aria-hidden="true" x1="550.0" y1="840.0" x2="588.0" y2="840.0" stroke="#69778A" stroke-width="2" opacity="0.7"/><line aria-hidden="true" x1="550.0" y1="849.0" x2="588.0" y2="849.0" stroke="#69778A" stroke-width="2" opacity="0.7"/><line aria-hidden="true" x1="550.0" y1="858.0" x2="588.0" y2="858.0" stroke="#69778A" stroke-width="2" opacity="0.7"/><rect x="536.0" y="825.0" width="7" height="24.0" rx="3.5" fill="#246BCE"/><text aria-hidden="true" opacity="0" class="node-label" text-anchor="middle"><tspan x="551.0" y="842.0"></tspan></text></g><text x="578.0" y="842.0" class="label" text-anchor="start" >Bảng kê</text><g id="visual-legend-file"><path d="M 786.0 841.0 H 799.2 L 815.2 825.0 H 816.0 V 849.0 H 786.0 Z" fill="#E2F3EB" stroke="#267A55" stroke-width="2"/><rect x="786.0" y="825.0" width="7" height="24.0" rx="3.5" fill="#246BCE"/><text aria-hidden="true" opacity="0" class="node-label" text-anchor="middle"><tspan x="801.0" y="842.0"></tspan></text></g><text x="828.0" y="842.0" class="label" text-anchor="start" >Tệp lưu</text>
</svg>
